<?xml version="1.0" encoding="UTF-8" standalone="no"?>
<!DOCTYPE svg PUBLIC "-//W3C//DTD SVG 1.1//EN"
 "http://www.w3.org/Graphics/SVG/1.1/DTD/svg11.dtd">
<!-- Generated by graphviz version 5.0.0 (20220707.1540)
 -->
<!-- Title: Tree Pages: 1 -->
<svg width="2510pt" height="581pt"
 viewBox="0.00 0.00 2509.50 581.00" xmlns="http://www.w3.org/2000/svg" xmlns:xlink="http://www.w3.org/1999/xlink">
<g id="graph0" class="graph" transform="scale(1 1) rotate(0) translate(4 577)">
<title>Tree</title>
<polygon fill="white" stroke="transparent" points="-4,4 -4,-577 2505.5,-577 2505.5,4 -4,4"/>
<!-- 0 -->
<g id="node1" class="node">
<title>0</title>
<path fill="#ffffff" stroke="black" d="M1417.5,-573C1417.5,-573 1271.5,-573 1271.5,-573 1265.5,-573 1259.5,-567 1259.5,-561 1259.5,-561 1259.5,-517 1259.5,-517 1259.5,-511 1265.5,-505 1271.5,-505 1271.5,-505 1417.5,-505 1417.5,-505 1423.5,-505 1429.5,-511 1429.5,-517 1429.5,-517 1429.5,-561 1429.5,-561 1429.5,-567 1423.5,-573 1417.5,-573"/>
<text text-anchor="middle" x="1344.5" y="-557.8" font-family="Helvetica,sans-Serif" font-size="14.00">housing &lt;= 0.5</text>
<text text-anchor="middle" x="1344.5" y="-542.8" font-family="Helvetica,sans-Serif" font-size="14.00">gini = 0.5</text>
<text text-anchor="middle" x="1344.5" y="-527.8" font-family="Helvetica,sans-Serif" font-size="14.00">samples = 15000</text>
<text text-anchor="middle" x="1344.5" y="-512.8" font-family="Helvetica,sans-Serif" font-size="14.00">value = [7500.0, 7500.0]</text>
</g>
<!-- 1 -->
<g id="node2" class="node">
<title>1</title>
<path fill="#8fc8f0" stroke="black" d="M1069,-469C1069,-469 890,-469 890,-469 884,-469 878,-463 878,-457 878,-457 878,-413 878,-413 878,-407 884,-401 890,-401 890,-401 1069,-401 1069,-401 1075,-401 1081,-407 1081,-413 1081,-413 1081,-457 1081,-457 1081,-463 1075,-469 1069,-469"/>
<text text-anchor="middle" x="979.5" y="-453.8" font-family="Helvetica,sans-Serif" font-size="14.00">jo_1 &lt;= 0.5</text>
<text text-anchor="middle" x="979.5" y="-438.8" font-family="Helvetica,sans-Serif" font-size="14.00">gini = 0.423</text>
<text text-anchor="middle" x="979.5" y="-423.8" font-family="Helvetica,sans-Serif" font-size="14.00">samples = 9114</text>
<text text-anchor="middle" x="979.5" y="-408.8" font-family="Helvetica,sans-Serif" font-size="14.00">value = [2757.857, 6330.421]</text>
</g>
<!-- 0&#45;&gt;1 -->
<g id="edge1" class="edge">
<title>0&#45;&gt;1</title>
<path fill="none" stroke="black" d="M1259.38,-514.21C1209.21,-500.19 1145.14,-482.29 1090.97,-467.15"/>
<polygon fill="black" stroke="black" points="1091.89,-463.77 1081.32,-464.45 1090.01,-470.52 1091.89,-463.77"/>
<text text-anchor="middle" x="1093.59" y="-482.54" font-family="Helvetica,sans-Serif" font-size="14.00">True</text>
</g>
<!-- 2 -->
<g id="node21" class="node">
<title>2</title>
<path fill="#eba06a" stroke="black" d="M1814,-469C1814,-469 1635,-469 1635,-469 1629,-469 1623,-463 1623,-457 1623,-457 1623,-413 1623,-413 1623,-407 1629,-401 1635,-401 1635,-401 1814,-401 1814,-401 1820,-401 1826,-407 1826,-413 1826,-413 1826,-457 1826,-457 1826,-463 1820,-469 1814,-469"/>
<text text-anchor="middle" x="1724.5" y="-453.8" font-family="Helvetica,sans-Serif" font-size="14.00">married &lt;= 0.5</text>
<text text-anchor="middle" x="1724.5" y="-438.8" font-family="Helvetica,sans-Serif" font-size="14.00">gini = 0.317</text>
<text text-anchor="middle" x="1724.5" y="-423.8" font-family="Helvetica,sans-Serif" font-size="14.00">samples = 5886</text>
<text text-anchor="middle" x="1724.5" y="-408.8" font-family="Helvetica,sans-Serif" font-size="14.00">value = [4742.143, 1169.579]</text>
</g>
<!-- 0&#45;&gt;2 -->
<g id="edge20" class="edge">
<title>0&#45;&gt;2</title>
<path fill="none" stroke="black" d="M1429.78,-515.11C1483.98,-500.56 1554.72,-481.57 1613.31,-465.84"/>
<polygon fill="black" stroke="black" points="1614.23,-469.22 1622.98,-463.25 1612.41,-462.46 1614.23,-469.22"/>
<text text-anchor="middle" x="1610.49" y="-481.21" font-family="Helvetica,sans-Serif" font-size="14.00">False</text>
</g>
<!-- 3 -->
<g id="node3" class="node">
<title>3</title>
<path fill="#7abdee" stroke="black" d="M762,-365C762,-365 583,-365 583,-365 577,-365 571,-359 571,-353 571,-353 571,-309 571,-309 571,-303 577,-297 583,-297 583,-297 762,-297 762,-297 768,-297 774,-303 774,-309 774,-309 774,-353 774,-353 774,-359 768,-365 762,-365"/>
<text text-anchor="middle" x="672.5" y="-349.8" font-family="Helvetica,sans-Serif" font-size="14.00">jo_0 &lt;= 0.5</text>
<text text-anchor="middle" x="672.5" y="-334.8" font-family="Helvetica,sans-Serif" font-size="14.00">gini = 0.372</text>
<text text-anchor="middle" x="672.5" y="-319.8" font-family="Helvetica,sans-Serif" font-size="14.00">samples = 8078</text>
<text text-anchor="middle" x="672.5" y="-304.8" font-family="Helvetica,sans-Serif" font-size="14.00">value = [1991.338, 6057.387]</text>
</g>
<!-- 1&#45;&gt;3 -->
<g id="edge2" class="edge">
<title>1&#45;&gt;3</title>
<path fill="none" stroke="black" d="M879.83,-400.88C848.49,-390.47 813.73,-378.92 781.76,-368.3"/>
<polygon fill="black" stroke="black" points="782.53,-364.87 771.94,-365.04 780.32,-371.51 782.53,-364.87"/>
</g>
<!-- 4 -->
<g id="node14" class="node">
<title>4</title>
<path fill="#eeae80" stroke="black" d="M1061,-365C1061,-365 898,-365 898,-365 892,-365 886,-359 886,-353 886,-353 886,-309 886,-309 886,-303 892,-297 898,-297 898,-297 1061,-297 1061,-297 1067,-297 1073,-303 1073,-309 1073,-309 1073,-353 1073,-353 1073,-359 1067,-365 1061,-365"/>
<text text-anchor="middle" x="979.5" y="-349.8" font-family="Helvetica,sans-Serif" font-size="14.00">std_age &lt;= &#45;1.137</text>
<text text-anchor="middle" x="979.5" y="-334.8" font-family="Helvetica,sans-Serif" font-size="14.00">gini = 0.387</text>
<text text-anchor="middle" x="979.5" y="-319.8" font-family="Helvetica,sans-Serif" font-size="14.00">samples = 1036</text>
<text text-anchor="middle" x="979.5" y="-304.8" font-family="Helvetica,sans-Serif" font-size="14.00">value = [766.519, 273.034]</text>
</g>
<!-- 1&#45;&gt;4 -->
<g id="edge13" class="edge">
<title>1&#45;&gt;4</title>
<path fill="none" stroke="black" d="M979.5,-400.88C979.5,-392.78 979.5,-383.98 979.5,-375.47"/>
<polygon fill="black" stroke="black" points="983,-375.3 979.5,-365.3 976,-375.3 983,-375.3"/>
</g>
<!-- 5 -->
<g id="node4" class="node">
<title>5</title>
<path fill="#3e9fe6" stroke="black" d="M364,-261C364,-261 201,-261 201,-261 195,-261 189,-255 189,-249 189,-249 189,-205 189,-205 189,-199 195,-193 201,-193 201,-193 364,-193 364,-193 370,-193 376,-199 376,-205 376,-205 376,-249 376,-249 376,-255 370,-261 364,-261"/>
<text text-anchor="middle" x="282.5" y="-245.8" font-family="Helvetica,sans-Serif" font-size="14.00">std_age &lt;= 1.534</text>
<text text-anchor="middle" x="282.5" y="-230.8" font-family="Helvetica,sans-Serif" font-size="14.00">gini = 0.045</text>
<text text-anchor="middle" x="282.5" y="-215.8" font-family="Helvetica,sans-Serif" font-size="14.00">samples = 1969</text>
<text text-anchor="middle" x="282.5" y="-200.8" font-family="Helvetica,sans-Serif" font-size="14.00">value = [45.326, 1910.246]</text>
</g>
<!-- 3&#45;&gt;5 -->
<g id="edge3" class="edge">
<title>3&#45;&gt;5</title>
<path fill="none" stroke="black" d="M570.8,-303.4C513.94,-288.53 443.24,-270.04 386.08,-255.09"/>
<polygon fill="black" stroke="black" points="386.86,-251.68 376.3,-252.53 385.09,-258.45 386.86,-251.68"/>
</g>
<!-- 6 -->
<g id="node7" class="node">
<title>6</title>
<path fill="#96cbf1" stroke="black" d="M762,-261C762,-261 583,-261 583,-261 577,-261 571,-255 571,-249 571,-249 571,-205 571,-205 571,-199 577,-193 583,-193 583,-193 762,-193 762,-193 768,-193 774,-199 774,-205 774,-205 774,-249 774,-249 774,-255 768,-261 762,-261"/>
<text text-anchor="middle" x="672.5" y="-245.8" font-family="Helvetica,sans-Serif" font-size="14.00">std_age &lt;= &#45;1.419</text>
<text text-anchor="middle" x="672.5" y="-230.8" font-family="Helvetica,sans-Serif" font-size="14.00">gini = 0.435</text>
<text text-anchor="middle" x="672.5" y="-215.8" font-family="Helvetica,sans-Serif" font-size="14.00">samples = 6109</text>
<text text-anchor="middle" x="672.5" y="-200.8" font-family="Helvetica,sans-Serif" font-size="14.00">value = [1946.011, 4147.141]</text>
</g>
<!-- 3&#45;&gt;6 -->
<g id="edge6" class="edge">
<title>3&#45;&gt;6</title>
<path fill="none" stroke="black" d="M672.5,-296.88C672.5,-288.78 672.5,-279.98 672.5,-271.47"/>
<polygon fill="black" stroke="black" points="676,-271.3 672.5,-261.3 669,-271.3 676,-271.3"/>
</g>
<!-- 37 -->
<g id="node5" class="node">
<title>37</title>
<path fill="#3c9fe5" stroke="black" d="M175,-149.5C175,-149.5 12,-149.5 12,-149.5 6,-149.5 0,-143.5 0,-137.5 0,-137.5 0,-108.5 0,-108.5 0,-102.5 6,-96.5 12,-96.5 12,-96.5 175,-96.5 175,-96.5 181,-96.5 187,-102.5 187,-108.5 187,-108.5 187,-137.5 187,-137.5 187,-143.5 181,-149.5 175,-149.5"/>
<text text-anchor="middle" x="93.5" y="-134.3" font-family="Helvetica,sans-Serif" font-size="14.00">gini = 0.033</text>
<text text-anchor="middle" x="93.5" y="-119.3" font-family="Helvetica,sans-Serif" font-size="14.00">samples = 1949</text>
<text text-anchor="middle" x="93.5" y="-104.3" font-family="Helvetica,sans-Serif" font-size="14.00">value = [32.232, 1903.296]</text>
</g>
<!-- 5&#45;&gt;37 -->
<g id="edge4" class="edge">
<title>5&#45;&gt;37</title>
<path fill="none" stroke="black" d="M221.14,-192.88C198.21,-180.51 172.31,-166.53 149.85,-154.41"/>
<polygon fill="black" stroke="black" points="151.25,-151.19 140.79,-149.52 147.92,-157.35 151.25,-151.19"/>
</g>
<!-- 38 -->
<g id="node6" class="node">
<title>38</title>
<path fill="#f3c4a2" stroke="black" d="M347.5,-149.5C347.5,-149.5 217.5,-149.5 217.5,-149.5 211.5,-149.5 205.5,-143.5 205.5,-137.5 205.5,-137.5 205.5,-108.5 205.5,-108.5 205.5,-102.5 211.5,-96.5 217.5,-96.5 217.5,-96.5 347.5,-96.5 347.5,-96.5 353.5,-96.5 359.5,-102.5 359.5,-108.5 359.5,-108.5 359.5,-137.5 359.5,-137.5 359.5,-143.5 353.5,-149.5 347.5,-149.5"/>
<text text-anchor="middle" x="282.5" y="-134.3" font-family="Helvetica,sans-Serif" font-size="14.00">gini = 0.453</text>
<text text-anchor="middle" x="282.5" y="-119.3" font-family="Helvetica,sans-Serif" font-size="14.00">samples = 20</text>
<text text-anchor="middle" x="282.5" y="-104.3" font-family="Helvetica,sans-Serif" font-size="14.00">value = [13.094, 6.95]</text>
</g>
<!-- 5&#45;&gt;38 -->
<g id="edge5" class="edge">
<title>5&#45;&gt;38</title>
<path fill="none" stroke="black" d="M282.5,-192.88C282.5,-182.33 282.5,-170.6 282.5,-159.85"/>
<polygon fill="black" stroke="black" points="286,-159.52 282.5,-149.52 279,-159.52 286,-159.52"/>
</g>
<!-- 9 -->
<g id="node8" class="node">
<title>9</title>
<path fill="#f5cfb4" stroke="black" d="M553,-157C553,-157 390,-157 390,-157 384,-157 378,-151 378,-145 378,-145 378,-101 378,-101 378,-95 384,-89 390,-89 390,-89 553,-89 553,-89 559,-89 565,-95 565,-101 565,-101 565,-145 565,-145 565,-151 559,-157 553,-157"/>
<text text-anchor="middle" x="471.5" y="-141.8" font-family="Helvetica,sans-Serif" font-size="14.00">income &lt;= 3855.309</text>
<text text-anchor="middle" x="471.5" y="-126.8" font-family="Helvetica,sans-Serif" font-size="14.00">gini = 0.473</text>
<text text-anchor="middle" x="471.5" y="-111.8" font-family="Helvetica,sans-Serif" font-size="14.00">samples = 835</text>
<text text-anchor="middle" x="471.5" y="-96.8" font-family="Helvetica,sans-Serif" font-size="14.00">value = [515.713, 320.691]</text>
</g>
<!-- 6&#45;&gt;9 -->
<g id="edge7" class="edge">
<title>6&#45;&gt;9</title>
<path fill="none" stroke="black" d="M607.24,-192.88C587.66,-182.95 566.03,-171.97 545.9,-161.76"/>
<polygon fill="black" stroke="black" points="547.28,-158.53 536.78,-157.12 544.11,-164.77 547.28,-158.53"/>
</g>
<!-- 10 -->
<g id="node11" class="node">
<title>10</title>
<path fill="#83c2ef" stroke="black" d="M766,-157C766,-157 595,-157 595,-157 589,-157 583,-151 583,-145 583,-145 583,-101 583,-101 583,-95 589,-89 595,-89 595,-89 766,-89 766,-89 772,-89 778,-95 778,-101 778,-101 778,-145 778,-145 778,-151 772,-157 766,-157"/>
<text text-anchor="middle" x="680.5" y="-141.8" font-family="Helvetica,sans-Serif" font-size="14.00">married &lt;= 0.5</text>
<text text-anchor="middle" x="680.5" y="-126.8" font-family="Helvetica,sans-Serif" font-size="14.00">gini = 0.396</text>
<text text-anchor="middle" x="680.5" y="-111.8" font-family="Helvetica,sans-Serif" font-size="14.00">samples = 5274</text>
<text text-anchor="middle" x="680.5" y="-96.8" font-family="Helvetica,sans-Serif" font-size="14.00">value = [1430.298, 3826.45]</text>
</g>
<!-- 6&#45;&gt;10 -->
<g id="edge10" class="edge">
<title>6&#45;&gt;10</title>
<path fill="none" stroke="black" d="M675.1,-192.88C675.73,-184.78 676.42,-175.98 677.09,-167.47"/>
<polygon fill="black" stroke="black" points="680.6,-167.54 677.89,-157.3 673.62,-167 680.6,-167.54"/>
</g>
<!-- 19 -->
<g id="node9" class="node">
<title>19</title>
<path fill="#e99254" stroke="black" d="M351.5,-53C351.5,-53 213.5,-53 213.5,-53 207.5,-53 201.5,-47 201.5,-41 201.5,-41 201.5,-12 201.5,-12 201.5,-6 207.5,0 213.5,0 213.5,0 351.5,0 351.5,0 357.5,0 363.5,-6 363.5,-12 363.5,-12 363.5,-41 363.5,-41 363.5,-47 357.5,-53 351.5,-53"/>
<text text-anchor="middle" x="282.5" y="-37.8" font-family="Helvetica,sans-Serif" font-size="14.00">gini = 0.214</text>
<text text-anchor="middle" x="282.5" y="-22.8" font-family="Helvetica,sans-Serif" font-size="14.00">samples = 227</text>
<text text-anchor="middle" x="282.5" y="-7.8" font-family="Helvetica,sans-Serif" font-size="14.00">value = [200.443, 27.8]</text>
</g>
<!-- 9&#45;&gt;19 -->
<g id="edge8" class="edge">
<title>9&#45;&gt;19</title>
<path fill="none" stroke="black" d="M405.4,-88.95C385,-78.75 362.65,-67.57 342.67,-57.59"/>
<polygon fill="black" stroke="black" points="344.18,-54.43 333.67,-53.09 341.05,-60.69 344.18,-54.43"/>
</g>
<!-- 20 -->
<g id="node10" class="node">
<title>20</title>
<path fill="#fdf6f1" stroke="black" d="M549,-53C549,-53 394,-53 394,-53 388,-53 382,-47 382,-41 382,-41 382,-12 382,-12 382,-6 388,0 394,0 394,0 549,0 549,0 555,0 561,-6 561,-12 561,-12 561,-41 561,-41 561,-47 555,-53 549,-53"/>
<text text-anchor="middle" x="471.5" y="-37.8" font-family="Helvetica,sans-Serif" font-size="14.00">gini = 0.499</text>
<text text-anchor="middle" x="471.5" y="-22.8" font-family="Helvetica,sans-Serif" font-size="14.00">samples = 608</text>
<text text-anchor="middle" x="471.5" y="-7.8" font-family="Helvetica,sans-Serif" font-size="14.00">value = [315.27, 292.891]</text>
</g>
<!-- 9&#45;&gt;20 -->
<g id="edge9" class="edge">
<title>9&#45;&gt;20</title>
<path fill="none" stroke="black" d="M471.5,-88.95C471.5,-80.72 471.5,-71.85 471.5,-63.48"/>
<polygon fill="black" stroke="black" points="475,-63.24 471.5,-53.24 468,-63.24 475,-63.24"/>
</g>
<!-- 11 -->
<g id="node12" class="node">
<title>11</title>
<path fill="#63b2eb" stroke="black" d="M762,-53C762,-53 591,-53 591,-53 585,-53 579,-47 579,-41 579,-41 579,-12 579,-12 579,-6 585,0 591,0 591,0 762,0 762,0 768,0 774,-6 774,-12 774,-12 774,-41 774,-41 774,-47 768,-53 762,-53"/>
<text text-anchor="middle" x="676.5" y="-37.8" font-family="Helvetica,sans-Serif" font-size="14.00">gini = 0.291</text>
<text text-anchor="middle" x="676.5" y="-22.8" font-family="Helvetica,sans-Serif" font-size="14.00">samples = 3334</text>
<text text-anchor="middle" x="676.5" y="-7.8" font-family="Helvetica,sans-Serif" font-size="14.00">value = [586.221, 2732.327]</text>
</g>
<!-- 10&#45;&gt;11 -->
<g id="edge11" class="edge">
<title>10&#45;&gt;11</title>
<path fill="none" stroke="black" d="M679.1,-88.95C678.75,-80.72 678.38,-71.85 678.02,-63.48"/>
<polygon fill="black" stroke="black" points="681.51,-63.08 677.59,-53.24 674.52,-63.38 681.51,-63.08"/>
</g>
<!-- 12 -->
<g id="node13" class="node">
<title>12</title>
<path fill="#d2e9f9" stroke="black" d="M975,-53C975,-53 804,-53 804,-53 798,-53 792,-47 792,-41 792,-41 792,-12 792,-12 792,-6 798,0 804,0 804,0 975,0 975,0 981,0 987,-6 987,-12 987,-12 987,-41 987,-41 987,-47 981,-53 975,-53"/>
<text text-anchor="middle" x="889.5" y="-37.8" font-family="Helvetica,sans-Serif" font-size="14.00">gini = 0.492</text>
<text text-anchor="middle" x="889.5" y="-22.8" font-family="Helvetica,sans-Serif" font-size="14.00">samples = 1940</text>
<text text-anchor="middle" x="889.5" y="-7.8" font-family="Helvetica,sans-Serif" font-size="14.00">value = [844.077, 1094.122]</text>
</g>
<!-- 10&#45;&gt;12 -->
<g id="edge12" class="edge">
<title>10&#45;&gt;12</title>
<path fill="none" stroke="black" d="M753.6,-88.95C776.36,-78.66 801.32,-67.37 823.56,-57.32"/>
<polygon fill="black" stroke="black" points="825.24,-60.4 832.91,-53.09 822.36,-54.02 825.24,-60.4"/>
</g>
<!-- 27 -->
<g id="node15" class="node">
<title>27</title>
<path fill="#e89254" stroke="black" d="M999.5,-253.5C999.5,-253.5 853.5,-253.5 853.5,-253.5 847.5,-253.5 841.5,-247.5 841.5,-241.5 841.5,-241.5 841.5,-212.5 841.5,-212.5 841.5,-206.5 847.5,-200.5 853.5,-200.5 853.5,-200.5 999.5,-200.5 999.5,-200.5 1005.5,-200.5 1011.5,-206.5 1011.5,-212.5 1011.5,-212.5 1011.5,-241.5 1011.5,-241.5 1011.5,-247.5 1005.5,-253.5 999.5,-253.5"/>
<text text-anchor="middle" x="926.5" y="-238.3" font-family="Helvetica,sans-Serif" font-size="14.00">gini = 0.209</text>
<text text-anchor="middle" x="926.5" y="-223.3" font-family="Helvetica,sans-Serif" font-size="14.00">samples = 408</text>
<text text-anchor="middle" x="926.5" y="-208.3" font-family="Helvetica,sans-Serif" font-size="14.00">value = [361.604, 48.65]</text>
</g>
<!-- 4&#45;&gt;27 -->
<g id="edge14" class="edge">
<title>4&#45;&gt;27</title>
<path fill="none" stroke="black" d="M962.29,-296.88C956.58,-285.89 950.2,-273.62 944.44,-262.52"/>
<polygon fill="black" stroke="black" points="947.48,-260.78 939.76,-253.52 941.27,-264.01 947.48,-260.78"/>
</g>
<!-- 28 -->
<g id="node16" class="node">
<title>28</title>
<path fill="#f3c7a7" stroke="black" d="M1205,-261C1205,-261 1042,-261 1042,-261 1036,-261 1030,-255 1030,-249 1030,-249 1030,-205 1030,-205 1030,-199 1036,-193 1042,-193 1042,-193 1205,-193 1205,-193 1211,-193 1217,-199 1217,-205 1217,-205 1217,-249 1217,-249 1217,-255 1211,-261 1205,-261"/>
<text text-anchor="middle" x="1123.5" y="-245.8" font-family="Helvetica,sans-Serif" font-size="14.00">gender &lt;= &#45;0.916</text>
<text text-anchor="middle" x="1123.5" y="-230.8" font-family="Helvetica,sans-Serif" font-size="14.00">gini = 0.459</text>
<text text-anchor="middle" x="1123.5" y="-215.8" font-family="Helvetica,sans-Serif" font-size="14.00">samples = 628</text>
<text text-anchor="middle" x="1123.5" y="-200.8" font-family="Helvetica,sans-Serif" font-size="14.00">value = [404.915, 224.384]</text>
</g>
<!-- 4&#45;&gt;28 -->
<g id="edge15" class="edge">
<title>4&#45;&gt;28</title>
<path fill="none" stroke="black" d="M1026.25,-296.88C1039.58,-287.44 1054.23,-277.06 1068.03,-267.29"/>
<polygon fill="black" stroke="black" points="1070.35,-269.94 1076.49,-261.3 1066.31,-264.22 1070.35,-269.94"/>
</g>
<!-- 29 -->
<g id="node17" class="node">
<title>29</title>
<path fill="#ea9b61" stroke="black" d="M1049.5,-149.5C1049.5,-149.5 903.5,-149.5 903.5,-149.5 897.5,-149.5 891.5,-143.5 891.5,-137.5 891.5,-137.5 891.5,-108.5 891.5,-108.5 891.5,-102.5 897.5,-96.5 903.5,-96.5 903.5,-96.5 1049.5,-96.5 1049.5,-96.5 1055.5,-96.5 1061.5,-102.5 1061.5,-108.5 1061.5,-108.5 1061.5,-137.5 1061.5,-137.5 1061.5,-143.5 1055.5,-149.5 1049.5,-149.5"/>
<text text-anchor="middle" x="976.5" y="-134.3" font-family="Helvetica,sans-Serif" font-size="14.00">gini = 0.28</text>
<text text-anchor="middle" x="976.5" y="-119.3" font-family="Helvetica,sans-Serif" font-size="14.00">samples = 287</text>
<text text-anchor="middle" x="976.5" y="-104.3" font-family="Helvetica,sans-Serif" font-size="14.00">value = [239.726, 48.65]</text>
</g>
<!-- 28&#45;&gt;29 -->
<g id="edge16" class="edge">
<title>28&#45;&gt;29</title>
<path fill="none" stroke="black" d="M1075.77,-192.88C1058.34,-180.79 1038.69,-167.15 1021.5,-155.22"/>
<polygon fill="black" stroke="black" points="1023.49,-152.35 1013.28,-149.52 1019.5,-158.1 1023.49,-152.35"/>
</g>
<!-- 30 -->
<g id="node18" class="node">
<title>30</title>
<path fill="#f3f9fd" stroke="black" d="M1255,-157C1255,-157 1092,-157 1092,-157 1086,-157 1080,-151 1080,-145 1080,-145 1080,-101 1080,-101 1080,-95 1086,-89 1092,-89 1092,-89 1255,-89 1255,-89 1261,-89 1267,-95 1267,-101 1267,-101 1267,-145 1267,-145 1267,-151 1261,-157 1255,-157"/>
<text text-anchor="middle" x="1173.5" y="-141.8" font-family="Helvetica,sans-Serif" font-size="14.00">gender &lt;= 1.084</text>
<text text-anchor="middle" x="1173.5" y="-126.8" font-family="Helvetica,sans-Serif" font-size="14.00">gini = 0.5</text>
<text text-anchor="middle" x="1173.5" y="-111.8" font-family="Helvetica,sans-Serif" font-size="14.00">samples = 341</text>
<text text-anchor="middle" x="1173.5" y="-96.8" font-family="Helvetica,sans-Serif" font-size="14.00">value = [165.189, 175.735]</text>
</g>
<!-- 28&#45;&gt;30 -->
<g id="edge17" class="edge">
<title>28&#45;&gt;30</title>
<path fill="none" stroke="black" d="M1139.73,-192.88C1143.88,-184.42 1148.4,-175.21 1152.74,-166.35"/>
<polygon fill="black" stroke="black" points="1155.92,-167.82 1157.18,-157.3 1149.63,-164.74 1155.92,-167.82"/>
</g>
<!-- 31 -->
<g id="node19" class="node">
<title>31</title>
<path fill="#399de5" stroke="black" d="M1147.5,-53C1147.5,-53 1017.5,-53 1017.5,-53 1011.5,-53 1005.5,-47 1005.5,-41 1005.5,-41 1005.5,-12 1005.5,-12 1005.5,-6 1011.5,0 1017.5,0 1017.5,0 1147.5,0 1147.5,0 1153.5,0 1159.5,-6 1159.5,-12 1159.5,-12 1159.5,-41 1159.5,-41 1159.5,-47 1153.5,-53 1147.5,-53"/>
<text text-anchor="middle" x="1082.5" y="-37.8" font-family="Helvetica,sans-Serif" font-size="14.00">gini = 0.0</text>
<text text-anchor="middle" x="1082.5" y="-22.8" font-family="Helvetica,sans-Serif" font-size="14.00">samples = 131</text>
<text text-anchor="middle" x="1082.5" y="-7.8" font-family="Helvetica,sans-Serif" font-size="14.00">value = [0.0, 130.064]</text>
</g>
<!-- 30&#45;&gt;31 -->
<g id="edge18" class="edge">
<title>30&#45;&gt;31</title>
<path fill="none" stroke="black" d="M1141.67,-88.95C1132.86,-79.8 1123.3,-69.87 1114.48,-60.71"/>
<polygon fill="black" stroke="black" points="1116.74,-58.01 1107.28,-53.24 1111.7,-62.87 1116.74,-58.01"/>
</g>
<!-- 32 -->
<g id="node20" class="node">
<title>32</title>
<path fill="#eca470" stroke="black" d="M1345,-53C1345,-53 1190,-53 1190,-53 1184,-53 1178,-47 1178,-41 1178,-41 1178,-12 1178,-12 1178,-6 1184,0 1190,0 1190,0 1345,0 1345,0 1351,0 1357,-6 1357,-12 1357,-12 1357,-41 1357,-41 1357,-47 1351,-53 1345,-53"/>
<text text-anchor="middle" x="1267.5" y="-37.8" font-family="Helvetica,sans-Serif" font-size="14.00">gini = 0.339</text>
<text text-anchor="middle" x="1267.5" y="-22.8" font-family="Helvetica,sans-Serif" font-size="14.00">samples = 210</text>
<text text-anchor="middle" x="1267.5" y="-7.8" font-family="Helvetica,sans-Serif" font-size="14.00">value = [165.189, 45.671]</text>
</g>
<!-- 30&#45;&gt;32 -->
<g id="edge19" class="edge">
<title>30&#45;&gt;32</title>
<path fill="none" stroke="black" d="M1206.38,-88.95C1215.57,-79.71 1225.55,-69.67 1234.74,-60.44"/>
<polygon fill="black" stroke="black" points="1237.33,-62.79 1241.9,-53.24 1232.37,-57.86 1237.33,-62.79"/>
</g>
<!-- 7 -->
<g id="node22" class="node">
<title>7</title>
<path fill="#f1bd97" stroke="black" d="M1810,-365C1810,-365 1639,-365 1639,-365 1633,-365 1627,-359 1627,-353 1627,-353 1627,-309 1627,-309 1627,-303 1633,-297 1639,-297 1639,-297 1810,-297 1810,-297 1816,-297 1822,-303 1822,-309 1822,-309 1822,-353 1822,-353 1822,-359 1816,-365 1810,-365"/>
<text text-anchor="middle" x="1724.5" y="-349.8" font-family="Helvetica,sans-Serif" font-size="14.00">gender &lt;= 1.08</text>
<text text-anchor="middle" x="1724.5" y="-334.8" font-family="Helvetica,sans-Serif" font-size="14.00">gini = 0.436</text>
<text text-anchor="middle" x="1724.5" y="-319.8" font-family="Helvetica,sans-Serif" font-size="14.00">samples = 2899</text>
<text text-anchor="middle" x="1724.5" y="-304.8" font-family="Helvetica,sans-Serif" font-size="14.00">value = [1974.214, 932.288]</text>
</g>
<!-- 2&#45;&gt;7 -->
<g id="edge21" class="edge">
<title>2&#45;&gt;7</title>
<path fill="none" stroke="black" d="M1724.5,-400.88C1724.5,-392.78 1724.5,-383.98 1724.5,-375.47"/>
<polygon fill="black" stroke="black" points="1728,-375.3 1724.5,-365.3 1721,-375.3 1728,-375.3"/>
</g>
<!-- 8 -->
<g id="node33" class="node">
<title>8</title>
<path fill="#e78c4a" stroke="black" d="M2124,-365C2124,-365 1953,-365 1953,-365 1947,-365 1941,-359 1941,-353 1941,-353 1941,-309 1941,-309 1941,-303 1947,-297 1953,-297 1953,-297 2124,-297 2124,-297 2130,-297 2136,-303 2136,-309 2136,-309 2136,-353 2136,-353 2136,-359 2130,-365 2124,-365"/>
<text text-anchor="middle" x="2038.5" y="-349.8" font-family="Helvetica,sans-Serif" font-size="14.00">income &lt;= 20832.817</text>
<text text-anchor="middle" x="2038.5" y="-334.8" font-family="Helvetica,sans-Serif" font-size="14.00">gini = 0.145</text>
<text text-anchor="middle" x="2038.5" y="-319.8" font-family="Helvetica,sans-Serif" font-size="14.00">samples = 2987</text>
<text text-anchor="middle" x="2038.5" y="-304.8" font-family="Helvetica,sans-Serif" font-size="14.00">value = [2767.929, 237.292]</text>
</g>
<!-- 2&#45;&gt;8 -->
<g id="edge32" class="edge">
<title>2&#45;&gt;8</title>
<path fill="none" stroke="black" d="M1826.01,-401.02C1859.67,-390.09 1897.23,-377.89 1931.3,-366.82"/>
<polygon fill="black" stroke="black" points="1932.38,-370.15 1940.81,-363.73 1930.22,-363.49 1932.38,-370.15"/>
</g>
<!-- 13 -->
<g id="node23" class="node">
<title>13</title>
<path fill="#f8ddca" stroke="black" d="M1706,-261C1706,-261 1543,-261 1543,-261 1537,-261 1531,-255 1531,-249 1531,-249 1531,-205 1531,-205 1531,-199 1537,-193 1543,-193 1543,-193 1706,-193 1706,-193 1712,-193 1718,-199 1718,-205 1718,-205 1718,-249 1718,-249 1718,-255 1712,-261 1706,-261"/>
<text text-anchor="middle" x="1624.5" y="-245.8" font-family="Helvetica,sans-Serif" font-size="14.00">gender &lt;= &#45;0.919</text>
<text text-anchor="middle" x="1624.5" y="-230.8" font-family="Helvetica,sans-Serif" font-size="14.00">gini = 0.488</text>
<text text-anchor="middle" x="1624.5" y="-215.8" font-family="Helvetica,sans-Serif" font-size="14.00">samples = 1768</text>
<text text-anchor="middle" x="1624.5" y="-200.8" font-family="Helvetica,sans-Serif" font-size="14.00">value = [1021.354, 748.61]</text>
</g>
<!-- 7&#45;&gt;13 -->
<g id="edge22" class="edge">
<title>7&#45;&gt;13</title>
<path fill="none" stroke="black" d="M1692.03,-296.88C1683.21,-287.89 1673.56,-278.04 1664.38,-268.68"/>
<polygon fill="black" stroke="black" points="1666.65,-265.99 1657.15,-261.3 1661.65,-270.89 1666.65,-265.99"/>
</g>
<!-- 14 -->
<g id="node28" class="node">
<title>14</title>
<path fill="#ea995f" stroke="black" d="M1911,-261C1911,-261 1748,-261 1748,-261 1742,-261 1736,-255 1736,-249 1736,-249 1736,-205 1736,-205 1736,-199 1742,-193 1748,-193 1748,-193 1911,-193 1911,-193 1917,-193 1923,-199 1923,-205 1923,-205 1923,-249 1923,-249 1923,-255 1917,-261 1911,-261"/>
<text text-anchor="middle" x="1829.5" y="-245.8" font-family="Helvetica,sans-Serif" font-size="14.00">income &lt;= 16826.085</text>
<text text-anchor="middle" x="1829.5" y="-230.8" font-family="Helvetica,sans-Serif" font-size="14.00">gini = 0.271</text>
<text text-anchor="middle" x="1829.5" y="-215.8" font-family="Helvetica,sans-Serif" font-size="14.00">samples = 1131</text>
<text text-anchor="middle" x="1829.5" y="-200.8" font-family="Helvetica,sans-Serif" font-size="14.00">value = [952.861, 183.678]</text>
</g>
<!-- 7&#45;&gt;14 -->
<g id="edge27" class="edge">
<title>7&#45;&gt;14</title>
<path fill="none" stroke="black" d="M1758.59,-296.88C1767.94,-287.8 1778.19,-277.85 1787.91,-268.4"/>
<polygon fill="black" stroke="black" points="1790.49,-270.78 1795.22,-261.3 1785.61,-265.76 1790.49,-270.78"/>
</g>
<!-- 15 -->
<g id="node24" class="node">
<title>15</title>
<path fill="#eca470" stroke="black" d="M1550,-157C1550,-157 1387,-157 1387,-157 1381,-157 1375,-151 1375,-145 1375,-145 1375,-101 1375,-101 1375,-95 1381,-89 1387,-89 1387,-89 1550,-89 1550,-89 1556,-89 1562,-95 1562,-101 1562,-101 1562,-145 1562,-145 1562,-151 1556,-157 1550,-157"/>
<text text-anchor="middle" x="1468.5" y="-141.8" font-family="Helvetica,sans-Serif" font-size="14.00">jo_1 &lt;= 0.5</text>
<text text-anchor="middle" x="1468.5" y="-126.8" font-family="Helvetica,sans-Serif" font-size="14.00">gini = 0.339</text>
<text text-anchor="middle" x="1468.5" y="-111.8" font-family="Helvetica,sans-Serif" font-size="14.00">samples = 1298</text>
<text text-anchor="middle" x="1468.5" y="-96.8" font-family="Helvetica,sans-Serif" font-size="14.00">value = [1021.354, 281.97]</text>
</g>
<!-- 13&#45;&gt;15 -->
<g id="edge23" class="edge">
<title>13&#45;&gt;15</title>
<path fill="none" stroke="black" d="M1573.85,-192.88C1559.2,-183.3 1543.08,-172.76 1527.94,-162.86"/>
<polygon fill="black" stroke="black" points="1529.45,-159.67 1519.16,-157.12 1525.62,-165.53 1529.45,-159.67"/>
</g>
<!-- 16 -->
<g id="node27" class="node">
<title>16</title>
<path fill="#399de5" stroke="black" d="M1714.5,-149.5C1714.5,-149.5 1592.5,-149.5 1592.5,-149.5 1586.5,-149.5 1580.5,-143.5 1580.5,-137.5 1580.5,-137.5 1580.5,-108.5 1580.5,-108.5 1580.5,-102.5 1586.5,-96.5 1592.5,-96.5 1592.5,-96.5 1714.5,-96.5 1714.5,-96.5 1720.5,-96.5 1726.5,-102.5 1726.5,-108.5 1726.5,-108.5 1726.5,-137.5 1726.5,-137.5 1726.5,-143.5 1720.5,-149.5 1714.5,-149.5"/>
<text text-anchor="middle" x="1653.5" y="-134.3" font-family="Helvetica,sans-Serif" font-size="14.00">gini = 0.0</text>
<text text-anchor="middle" x="1653.5" y="-119.3" font-family="Helvetica,sans-Serif" font-size="14.00">samples = 470</text>
<text text-anchor="middle" x="1653.5" y="-104.3" font-family="Helvetica,sans-Serif" font-size="14.00">value = [0.0, 466.64]</text>
</g>
<!-- 13&#45;&gt;16 -->
<g id="edge26" class="edge">
<title>13&#45;&gt;16</title>
<path fill="none" stroke="black" d="M1633.92,-192.88C1636.98,-182.11 1640.39,-170.11 1643.5,-159.18"/>
<polygon fill="black" stroke="black" points="1646.88,-160.1 1646.24,-149.52 1640.14,-158.18 1646.88,-160.1"/>
</g>
<!-- 23 -->
<g id="node25" class="node">
<title>23</title>
<path fill="#efb184" stroke="black" d="M1550,-53C1550,-53 1387,-53 1387,-53 1381,-53 1375,-47 1375,-41 1375,-41 1375,-12 1375,-12 1375,-6 1381,0 1387,0 1387,0 1550,0 1550,0 1556,0 1562,-6 1562,-12 1562,-12 1562,-41 1562,-41 1562,-47 1556,-53 1550,-53"/>
<text text-anchor="middle" x="1468.5" y="-37.8" font-family="Helvetica,sans-Serif" font-size="14.00">gini = 0.399</text>
<text text-anchor="middle" x="1468.5" y="-22.8" font-family="Helvetica,sans-Serif" font-size="14.00">samples = 1013</text>
<text text-anchor="middle" x="1468.5" y="-7.8" font-family="Helvetica,sans-Serif" font-size="14.00">value = [736.301, 279.984]</text>
</g>
<!-- 15&#45;&gt;23 -->
<g id="edge24" class="edge">
<title>15&#45;&gt;23</title>
<path fill="none" stroke="black" d="M1468.5,-88.95C1468.5,-80.72 1468.5,-71.85 1468.5,-63.48"/>
<polygon fill="black" stroke="black" points="1472,-63.24 1468.5,-53.24 1465,-63.24 1472,-63.24"/>
</g>
<!-- 24 -->
<g id="node26" class="node">
<title>24</title>
<path fill="#e5823a" stroke="black" d="M1738.5,-53C1738.5,-53 1592.5,-53 1592.5,-53 1586.5,-53 1580.5,-47 1580.5,-41 1580.5,-41 1580.5,-12 1580.5,-12 1580.5,-6 1586.5,0 1592.5,0 1592.5,0 1738.5,0 1738.5,0 1744.5,0 1750.5,-6 1750.5,-12 1750.5,-12 1750.5,-41 1750.5,-41 1750.5,-47 1744.5,-53 1738.5,-53"/>
<text text-anchor="middle" x="1665.5" y="-37.8" font-family="Helvetica,sans-Serif" font-size="14.00">gini = 0.014</text>
<text text-anchor="middle" x="1665.5" y="-22.8" font-family="Helvetica,sans-Serif" font-size="14.00">samples = 285</text>
<text text-anchor="middle" x="1665.5" y="-7.8" font-family="Helvetica,sans-Serif" font-size="14.00">value = [285.052, 1.986]</text>
</g>
<!-- 15&#45;&gt;24 -->
<g id="edge25" class="edge">
<title>15&#45;&gt;24</title>
<path fill="none" stroke="black" d="M1537.4,-88.95C1558.76,-78.7 1582.17,-67.47 1603.06,-57.45"/>
<polygon fill="black" stroke="black" points="1604.66,-60.57 1612.16,-53.09 1601.63,-54.26 1604.66,-60.57"/>
</g>
<!-- 17 -->
<g id="node29" class="node">
<title>17</title>
<path fill="#e88e4e" stroke="black" d="M1902.5,-149.5C1902.5,-149.5 1756.5,-149.5 1756.5,-149.5 1750.5,-149.5 1744.5,-143.5 1744.5,-137.5 1744.5,-137.5 1744.5,-108.5 1744.5,-108.5 1744.5,-102.5 1750.5,-96.5 1756.5,-96.5 1756.5,-96.5 1902.5,-96.5 1902.5,-96.5 1908.5,-96.5 1914.5,-102.5 1914.5,-108.5 1914.5,-108.5 1914.5,-137.5 1914.5,-137.5 1914.5,-143.5 1908.5,-149.5 1902.5,-149.5"/>
<text text-anchor="middle" x="1829.5" y="-134.3" font-family="Helvetica,sans-Serif" font-size="14.00">gini = 0.171</text>
<text text-anchor="middle" x="1829.5" y="-119.3" font-family="Helvetica,sans-Serif" font-size="14.00">samples = 938</text>
<text text-anchor="middle" x="1829.5" y="-104.3" font-family="Helvetica,sans-Serif" font-size="14.00">value = [854.15, 89.357]</text>
</g>
<!-- 14&#45;&gt;17 -->
<g id="edge28" class="edge">
<title>14&#45;&gt;17</title>
<path fill="none" stroke="black" d="M1829.5,-192.88C1829.5,-182.33 1829.5,-170.6 1829.5,-159.85"/>
<polygon fill="black" stroke="black" points="1833,-159.52 1829.5,-149.52 1826,-159.52 1833,-159.52"/>
</g>
<!-- 18 -->
<g id="node30" class="node">
<title>18</title>
<path fill="#fef9f6" stroke="black" d="M2090.5,-157C2090.5,-157 1944.5,-157 1944.5,-157 1938.5,-157 1932.5,-151 1932.5,-145 1932.5,-145 1932.5,-101 1932.5,-101 1932.5,-95 1938.5,-89 1944.5,-89 1944.5,-89 2090.5,-89 2090.5,-89 2096.5,-89 2102.5,-95 2102.5,-101 2102.5,-101 2102.5,-145 2102.5,-145 2102.5,-151 2096.5,-157 2090.5,-157"/>
<text text-anchor="middle" x="2017.5" y="-141.8" font-family="Helvetica,sans-Serif" font-size="14.00">std_age &lt;= &#45;0.107</text>
<text text-anchor="middle" x="2017.5" y="-126.8" font-family="Helvetica,sans-Serif" font-size="14.00">gini = 0.5</text>
<text text-anchor="middle" x="2017.5" y="-111.8" font-family="Helvetica,sans-Serif" font-size="14.00">samples = 193</text>
<text text-anchor="middle" x="2017.5" y="-96.8" font-family="Helvetica,sans-Serif" font-size="14.00">value = [98.711, 94.321]</text>
</g>
<!-- 14&#45;&gt;18 -->
<g id="edge29" class="edge">
<title>14&#45;&gt;18</title>
<path fill="none" stroke="black" d="M1890.54,-192.88C1908.77,-182.99 1928.9,-172.07 1947.65,-161.9"/>
<polygon fill="black" stroke="black" points="1949.33,-164.97 1956.45,-157.12 1945.99,-158.82 1949.33,-164.97"/>
</g>
<!-- 35 -->
<g id="node31" class="node">
<title>35</title>
<path fill="#e6843e" stroke="black" d="M1921.5,-53C1921.5,-53 1783.5,-53 1783.5,-53 1777.5,-53 1771.5,-47 1771.5,-41 1771.5,-41 1771.5,-12 1771.5,-12 1771.5,-6 1777.5,0 1783.5,0 1783.5,0 1921.5,0 1921.5,0 1927.5,0 1933.5,-6 1933.5,-12 1933.5,-12 1933.5,-41 1933.5,-41 1933.5,-47 1927.5,-53 1921.5,-53"/>
<text text-anchor="middle" x="1852.5" y="-37.8" font-family="Helvetica,sans-Serif" font-size="14.00">gini = 0.048</text>
<text text-anchor="middle" x="1852.5" y="-22.8" font-family="Helvetica,sans-Serif" font-size="14.00">samples = 40</text>
<text text-anchor="middle" x="1852.5" y="-7.8" font-family="Helvetica,sans-Serif" font-size="14.00">value = [39.283, 0.993]</text>
</g>
<!-- 18&#45;&gt;35 -->
<g id="edge30" class="edge">
<title>18&#45;&gt;35</title>
<path fill="none" stroke="black" d="M1959.79,-88.95C1942.3,-78.93 1923.17,-67.98 1905.97,-58.13"/>
<polygon fill="black" stroke="black" points="1907.59,-55.02 1897.18,-53.09 1904.11,-61.09 1907.59,-55.02"/>
</g>
<!-- 36 -->
<g id="node32" class="node">
<title>36</title>
<path fill="#b7dbf6" stroke="black" d="M2109.5,-53C2109.5,-53 1963.5,-53 1963.5,-53 1957.5,-53 1951.5,-47 1951.5,-41 1951.5,-41 1951.5,-12 1951.5,-12 1951.5,-6 1957.5,0 1963.5,0 1963.5,0 2109.5,0 2109.5,0 2115.5,0 2121.5,-6 2121.5,-12 2121.5,-12 2121.5,-41 2121.5,-41 2121.5,-47 2115.5,-53 2109.5,-53"/>
<text text-anchor="middle" x="2036.5" y="-37.8" font-family="Helvetica,sans-Serif" font-size="14.00">gini = 0.475</text>
<text text-anchor="middle" x="2036.5" y="-22.8" font-family="Helvetica,sans-Serif" font-size="14.00">samples = 153</text>
<text text-anchor="middle" x="2036.5" y="-7.8" font-family="Helvetica,sans-Serif" font-size="14.00">value = [59.428, 93.328]</text>
</g>
<!-- 18&#45;&gt;36 -->
<g id="edge31" class="edge">
<title>18&#45;&gt;36</title>
<path fill="none" stroke="black" d="M2024.15,-88.95C2025.82,-80.62 2027.62,-71.65 2029.32,-63.2"/>
<polygon fill="black" stroke="black" points="2032.79,-63.73 2031.33,-53.24 2025.92,-62.35 2032.79,-63.73"/>
</g>
<!-- 21 -->
<g id="node34" class="node">
<title>21</title>
<path fill="#e78945" stroke="black" d="M2124,-253.5C2124,-253.5 1953,-253.5 1953,-253.5 1947,-253.5 1941,-247.5 1941,-241.5 1941,-241.5 1941,-212.5 1941,-212.5 1941,-206.5 1947,-200.5 1953,-200.5 1953,-200.5 2124,-200.5 2124,-200.5 2130,-200.5 2136,-206.5 2136,-212.5 2136,-212.5 2136,-241.5 2136,-241.5 2136,-247.5 2130,-253.5 2124,-253.5"/>
<text text-anchor="middle" x="2038.5" y="-238.3" font-family="Helvetica,sans-Serif" font-size="14.00">gini = 0.108</text>
<text text-anchor="middle" x="2038.5" y="-223.3" font-family="Helvetica,sans-Serif" font-size="14.00">samples = 2802</text>
<text text-anchor="middle" x="2038.5" y="-208.3" font-family="Helvetica,sans-Serif" font-size="14.00">value = [2658.139, 161.835]</text>
</g>
<!-- 8&#45;&gt;21 -->
<g id="edge33" class="edge">
<title>8&#45;&gt;21</title>
<path fill="none" stroke="black" d="M2038.5,-296.88C2038.5,-286.33 2038.5,-274.6 2038.5,-263.85"/>
<polygon fill="black" stroke="black" points="2042,-263.52 2038.5,-253.52 2035,-263.52 2042,-263.52"/>
</g>
<!-- 22 -->
<g id="node35" class="node">
<title>22</title>
<path fill="#f7d8c1" stroke="black" d="M2312.5,-261C2312.5,-261 2166.5,-261 2166.5,-261 2160.5,-261 2154.5,-255 2154.5,-249 2154.5,-249 2154.5,-205 2154.5,-205 2154.5,-199 2160.5,-193 2166.5,-193 2166.5,-193 2312.5,-193 2312.5,-193 2318.5,-193 2324.5,-199 2324.5,-205 2324.5,-205 2324.5,-249 2324.5,-249 2324.5,-255 2318.5,-261 2312.5,-261"/>
<text text-anchor="middle" x="2239.5" y="-245.8" font-family="Helvetica,sans-Serif" font-size="14.00">gender &lt;= 1.081</text>
<text text-anchor="middle" x="2239.5" y="-230.8" font-family="Helvetica,sans-Serif" font-size="14.00">gini = 0.483</text>
<text text-anchor="middle" x="2239.5" y="-215.8" font-family="Helvetica,sans-Serif" font-size="14.00">samples = 185</text>
<text text-anchor="middle" x="2239.5" y="-200.8" font-family="Helvetica,sans-Serif" font-size="14.00">value = [109.79, 75.457]</text>
</g>
<!-- 8&#45;&gt;22 -->
<g id="edge34" class="edge">
<title>8&#45;&gt;22</title>
<path fill="none" stroke="black" d="M2103.76,-296.88C2123.34,-286.95 2144.97,-275.97 2165.1,-265.76"/>
<polygon fill="black" stroke="black" points="2166.89,-268.77 2174.22,-261.12 2163.72,-262.53 2166.89,-268.77"/>
</g>
<!-- 25 -->
<g id="node36" class="node">
<title>25</title>
<path fill="#b6dbf5" stroke="black" d="M2309.5,-157C2309.5,-157 2163.5,-157 2163.5,-157 2157.5,-157 2151.5,-151 2151.5,-145 2151.5,-145 2151.5,-101 2151.5,-101 2151.5,-95 2157.5,-89 2163.5,-89 2163.5,-89 2309.5,-89 2309.5,-89 2315.5,-89 2321.5,-95 2321.5,-101 2321.5,-101 2321.5,-145 2321.5,-145 2321.5,-151 2315.5,-157 2309.5,-157"/>
<text text-anchor="middle" x="2236.5" y="-141.8" font-family="Helvetica,sans-Serif" font-size="14.00">income &lt;= 24321.367</text>
<text text-anchor="middle" x="2236.5" y="-126.8" font-family="Helvetica,sans-Serif" font-size="14.00">gini = 0.474</text>
<text text-anchor="middle" x="2236.5" y="-111.8" font-family="Helvetica,sans-Serif" font-size="14.00">samples = 120</text>
<text text-anchor="middle" x="2236.5" y="-96.8" font-family="Helvetica,sans-Serif" font-size="14.00">value = [46.334, 73.471]</text>
</g>
<!-- 22&#45;&gt;25 -->
<g id="edge35" class="edge">
<title>22&#45;&gt;25</title>
<path fill="none" stroke="black" d="M2238.53,-192.88C2238.29,-184.78 2238.03,-175.98 2237.78,-167.47"/>
<polygon fill="black" stroke="black" points="2241.27,-167.19 2237.48,-157.3 2234.27,-167.4 2241.27,-167.19"/>
</g>
<!-- 26 -->
<g id="node39" class="node">
<title>26</title>
<path fill="#e6853f" stroke="black" d="M2489.5,-149.5C2489.5,-149.5 2351.5,-149.5 2351.5,-149.5 2345.5,-149.5 2339.5,-143.5 2339.5,-137.5 2339.5,-137.5 2339.5,-108.5 2339.5,-108.5 2339.5,-102.5 2345.5,-96.5 2351.5,-96.5 2351.5,-96.5 2489.5,-96.5 2489.5,-96.5 2495.5,-96.5 2501.5,-102.5 2501.5,-108.5 2501.5,-108.5 2501.5,-137.5 2501.5,-137.5 2501.5,-143.5 2495.5,-149.5 2489.5,-149.5"/>
<text text-anchor="middle" x="2420.5" y="-134.3" font-family="Helvetica,sans-Serif" font-size="14.00">gini = 0.059</text>
<text text-anchor="middle" x="2420.5" y="-119.3" font-family="Helvetica,sans-Serif" font-size="14.00">samples = 65</text>
<text text-anchor="middle" x="2420.5" y="-104.3" font-family="Helvetica,sans-Serif" font-size="14.00">value = [63.457, 1.986]</text>
</g>
<!-- 22&#45;&gt;26 -->
<g id="edge38" class="edge">
<title>22&#45;&gt;26</title>
<path fill="none" stroke="black" d="M2298.27,-192.88C2320.12,-180.57 2344.81,-166.65 2366.24,-154.57"/>
<polygon fill="black" stroke="black" points="2368.22,-157.48 2375.21,-149.52 2364.78,-151.38 2368.22,-157.48"/>
</g>
<!-- 33 -->
<g id="node37" class="node">
<title>33</title>
<path fill="#75bbed" stroke="black" d="M2300.5,-53C2300.5,-53 2162.5,-53 2162.5,-53 2156.5,-53 2150.5,-47 2150.5,-41 2150.5,-41 2150.5,-12 2150.5,-12 2150.5,-6 2156.5,0 2162.5,0 2162.5,0 2300.5,0 2300.5,0 2306.5,0 2312.5,-6 2312.5,-12 2312.5,-12 2312.5,-41 2312.5,-41 2312.5,-47 2306.5,-53 2300.5,-53"/>
<text text-anchor="middle" x="2231.5" y="-37.8" font-family="Helvetica,sans-Serif" font-size="14.00">gini = 0.356</text>
<text text-anchor="middle" x="2231.5" y="-22.8" font-family="Helvetica,sans-Serif" font-size="14.00">samples = 96</text>
<text text-anchor="middle" x="2231.5" y="-7.8" font-family="Helvetica,sans-Serif" font-size="14.00">value = [22.16, 73.471]</text>
</g>
<!-- 25&#45;&gt;33 -->
<g id="edge36" class="edge">
<title>25&#45;&gt;33</title>
<path fill="none" stroke="black" d="M2234.75,-88.95C2234.32,-80.72 2233.85,-71.85 2233.4,-63.48"/>
<polygon fill="black" stroke="black" points="2236.89,-63.04 2232.86,-53.24 2229.9,-63.41 2236.89,-63.04"/>
</g>
<!-- 34 -->
<g id="node38" class="node">
<title>34</title>
<path fill="#e58139" stroke="black" d="M2464.5,-53C2464.5,-53 2342.5,-53 2342.5,-53 2336.5,-53 2330.5,-47 2330.5,-41 2330.5,-41 2330.5,-12 2330.5,-12 2330.5,-6 2336.5,0 2342.5,0 2342.5,0 2464.5,0 2464.5,0 2470.5,0 2476.5,-6 2476.5,-12 2476.5,-12 2476.5,-41 2476.5,-41 2476.5,-47 2470.5,-53 2464.5,-53"/>
<text text-anchor="middle" x="2403.5" y="-37.8" font-family="Helvetica,sans-Serif" font-size="14.00">gini = 0.0</text>
<text text-anchor="middle" x="2403.5" y="-22.8" font-family="Helvetica,sans-Serif" font-size="14.00">samples = 24</text>
<text text-anchor="middle" x="2403.5" y="-7.8" font-family="Helvetica,sans-Serif" font-size="14.00">value = [24.174, 0.0]</text>
</g>
<!-- 25&#45;&gt;34 -->
<g id="edge37" class="edge">
<title>25&#45;&gt;34</title>
<path fill="none" stroke="black" d="M2294.91,-88.95C2312.61,-78.93 2331.97,-67.98 2349.38,-58.13"/>
<polygon fill="black" stroke="black" points="2351.3,-61.06 2358.28,-53.09 2347.86,-54.97 2351.3,-61.06"/>
</g>
</g>
</svg>
